<svg width="20" height="16" viewBox="0 0 20 16" fill="none" xmlns="http://www.w3.org/2000/svg">
<path fill-rule="evenodd" clip-rule="evenodd" d="M19.1673 2.27573C18.4937 2.57692 17.7684 2.78061 17.0076 2.87161C17.7845 2.40358 18.3807 1.66143 18.6616 0.777356C17.9341 1.21073 17.1303 1.526 16.2716 1.69502C15.5872 0.959372 14.609 0.5 13.5265 0.5C11.4507 0.5 9.7666 2.19556 9.7666 4.28657C9.7666 4.58342 9.79888 4.87161 9.86345 5.14897C6.73741 4.99079 3.96648 3.48483 2.11023 1.19122C1.78632 1.75244 1.60124 2.40358 1.60124 3.09697C1.60124 4.41008 2.26518 5.56934 3.27455 6.24865C2.65903 6.23023 2.07794 6.05796 1.57003 5.77627V5.82286C1.57003 7.65818 2.86672 9.18906 4.58846 9.53575C4.27317 9.62459 3.94065 9.66901 3.59738 9.66901C3.35526 9.66901 3.11852 9.64626 2.88931 9.60184C3.36817 11.1056 4.75633 12.201 6.40275 12.2302C5.11574 13.2465 3.493 13.8521 1.73144 13.8521C1.42799 13.8521 1.12776 13.8348 0.833984 13.8001C2.49869 14.8727 4.47655 15.5 6.59967 15.5C13.5189 15.5 17.3014 9.73077 17.3014 4.72644C17.3014 4.56176 17.2982 4.39707 17.2917 4.23564C18.0267 3.70152 18.6648 3.03521 19.1673 2.27573Z" fill="#999999"/>
</svg>
