<svg width="20" height="13" viewBox="0 0 20 13" fill="none" xmlns="http://www.w3.org/2000/svg">
<path fill-rule="evenodd" clip-rule="evenodd" d="M19.5243 1.70708C19.6712 1.23715 19.5243 0.895384 18.8739 0.895384H16.7131C16.1677 0.895384 15.9159 1.19443 15.7691 1.51484C15.7691 1.51484 14.6572 4.24898 13.1047 6.02189C12.6012 6.53454 12.3705 6.70543 12.0977 6.70543C11.9509 6.70543 11.7621 6.53454 11.7621 6.06461V1.68572C11.7621 1.13035 11.5942 0.874023 11.1327 0.874023H7.73409C7.39842 0.874023 7.18863 1.13035 7.18863 1.38667C7.18863 1.92069 7.96486 2.04885 8.04877 3.54408V6.79087C8.04877 7.49577 7.9229 7.62393 7.65017 7.62393C6.91591 7.62393 5.13269 4.86843 4.06276 1.72844C3.85297 1.10899 3.64318 0.874023 3.09772 0.874023H0.915906C0.286536 0.874023 0.181641 1.17307 0.181641 1.49348C0.181641 2.07021 0.915906 4.97523 3.60122 8.82011C5.38444 11.4474 7.9229 12.8572 10.2096 12.8572C11.5942 12.8572 11.7621 12.5368 11.7621 12.0028V10.0163C11.7621 9.37549 11.8879 9.26868 12.3285 9.26868C12.6432 9.26868 13.2096 9.43957 14.4893 10.6998C15.9579 12.1951 16.2096 12.8786 17.0278 12.8786H19.1886C19.818 12.8786 20.1117 12.5582 19.9439 11.9387C19.7551 11.3193 19.0418 10.4221 18.1187 9.35413C17.6152 8.75603 16.86 8.09386 16.6292 7.77345C16.3145 7.34624 16.3984 7.17536 16.6292 6.79087C16.6082 6.79087 19.2516 2.98871 19.5243 1.70708Z" fill="#999999"/>
</svg>
