<svg width="20" height="14" viewBox="0 0 20 14" fill="none" xmlns="http://www.w3.org/2000/svg">
<path d="M19.4281 2.19059C19.1993 1.33412 18.5294 0.658823 17.6797 0.428235C16.1275 0 9.9183 0 9.9183 0C9.9183 0 3.70915 0 2.15686 0.411765C1.32353 0.642353 0.637255 1.33412 0.408497 2.19059C0 3.75529 0 7 0 7C0 7 0 10.2612 0.408497 11.8094C0.637255 12.6659 1.30719 13.3412 2.15686 13.5718C3.72549 14 9.9183 14 9.9183 14C9.9183 14 16.1275 14 17.6797 13.5882C18.5294 13.3576 19.1993 12.6824 19.4281 11.8259C19.8366 10.2612 19.8366 7.01647 19.8366 7.01647C19.8366 7.01647 19.8529 3.75529 19.4281 2.19059Z" fill="#999999"/>
</svg>
