<svg width="32" height="32" viewBox="0 0 32 32" fill="none" xmlns="http://www.w3.org/2000/svg">
<path d="M5.05804 9.83008C4.54058 9.83008 4.10153 10.0003 3.74063 10.3406C3.37973 10.681 3.19922 11.0894 3.19922 11.5661V18.8852C3.19922 19.3738 3.37967 19.7875 3.74063 20.128C4.10153 20.4683 4.54058 20.6386 5.05804 20.6386C5.57513 20.6386 6.01151 20.4684 6.36682 20.128C6.72143 19.7876 6.89922 19.3738 6.89922 18.8852V11.5661C6.89922 11.0894 6.71877 10.681 6.35781 10.3406C5.99685 10.0003 5.5635 9.83008 5.05804 9.83008Z" fill="#A8A8A8"/>
<path d="M20.5928 2.53388C20.6747 2.39974 20.7917 2.36546 20.9443 2.43329C21.0849 2.51193 21.1142 2.62343 21.0322 2.76923L19.7822 4.97235C21.0374 5.59001 22.041 6.45074 22.792 7.55536C23.5429 8.66088 23.9189 9.86914 23.9189 11.1813H7.63867C7.63867 9.86884 8.01471 8.66063 8.76562 7.55536C9.51652 6.4508 10.5259 5.58999 11.793 4.97235L10.543 2.76923C10.4607 2.62337 10.4899 2.5123 10.6309 2.43329C10.7831 2.36581 10.9001 2.39976 10.9824 2.53388L12.25 4.75458C13.3644 4.28356 14.5435 4.0476 15.7871 4.04755C17.0306 4.04755 18.2103 4.28343 19.3252 4.75458L20.5928 2.53388ZM12.0732 7.05927C11.8856 7.05927 11.7267 7.12375 11.5977 7.25262C11.4687 7.38178 11.4043 7.53622 11.4043 7.71552C11.4044 7.8952 11.4689 8.04869 11.5977 8.17743C11.7267 8.30691 11.8852 8.37177 12.0732 8.37177C12.2606 8.37169 12.4216 8.30672 12.5566 8.17743C12.691 8.04867 12.7593 7.89496 12.7598 7.71552C12.7598 7.53618 12.6915 7.3821 12.5566 7.25262C12.4216 7.12396 12.2606 7.05934 12.0732 7.05927ZM19.501 7.05927C19.313 7.05933 19.1514 7.12381 19.0166 7.25262C18.8817 7.38176 18.8145 7.53627 18.8145 7.71552C18.8146 7.89515 18.8818 8.04872 19.0166 8.17743C19.1514 8.30685 19.313 8.37171 19.501 8.37177C19.6883 8.37177 19.8473 8.30691 19.9766 8.17743C20.1054 8.04871 20.1698 7.89487 20.1699 7.71552C20.1699 7.53625 20.1056 7.38207 19.9766 7.25262C19.8472 7.12375 19.6886 7.05927 19.501 7.05927Z" fill="#A8A8A8"/>
<path d="M7.63867 22.4336C7.63867 22.9211 7.82773 23.3337 8.2059 23.6723C8.58439 24.011 9.04522 24.1802 9.58924 24.1802H10.9017L10.9197 27.7854C10.9197 28.2406 11.097 28.6272 11.4517 28.9448C11.8063 29.2624 12.2322 29.4212 12.7285 29.4212C13.2367 29.4212 13.6684 29.2624 14.0231 28.9448C14.3778 28.6272 14.5551 28.2407 14.5551 27.7854V24.1806H17.0025V27.7854C17.0025 28.2406 17.1797 28.6272 17.5344 28.9448C17.8891 29.2624 18.3204 29.4212 18.829 29.4212C19.3371 29.4212 19.7688 29.2624 20.1235 28.9448C20.4782 28.6272 20.6555 28.2407 20.6555 27.7854V24.1806H21.9857C22.5176 24.1806 22.9725 24.0112 23.3514 23.6726C23.7295 23.334 23.9187 22.9214 23.9187 22.434V11.8574H7.63867V22.4336Z" fill="#A8A8A8"/>
<path d="M26.5012 9.83008C25.9956 9.83008 25.5626 9.99775 25.2016 10.3322C24.8406 10.6672 24.6602 11.0788 24.6602 11.5661V18.8852C24.6602 19.3738 24.8406 19.7875 25.2016 20.128C25.5626 20.4684 25.996 20.6386 26.5012 20.6386C27.0184 20.6386 27.4577 20.4684 27.8187 20.128C28.1797 19.7875 28.3602 19.3738 28.3602 18.8852V11.5661C28.3602 11.0787 28.1797 10.6672 27.8187 10.3322C27.4577 9.99775 27.0184 9.83008 26.5012 9.83008Z" fill="#A8A8A8"/>
</svg>
