<svg width="32" height="32" viewBox="0 0 32 32" fill="none" xmlns="http://www.w3.org/2000/svg">
<path d="M24.6329 20.1662C23.8955 19.0896 23.527 17.8765 23.527 16.5282C23.527 15.2992 23.8747 14.1732 24.5688 13.1509C24.9428 12.5962 25.552 11.9547 26.3962 11.2258C25.8406 10.53 25.285 9.98612 24.729 9.59447C23.7246 8.88761 22.5864 8.53418 21.315 8.53418C20.5565 8.53418 19.6319 8.71898 18.5423 9.08904C17.495 9.45881 16.7309 9.64389 16.2503 9.64389C15.8868 9.64389 15.1496 9.48087 14.0383 9.15441C12.9163 8.82807 11.9706 8.66504 11.2012 8.66504C9.36331 8.66504 7.84595 9.44824 6.6492 11.0143C5.44174 12.6023 4.83789 14.6361 4.83789 17.116C4.83789 19.7481 5.62346 22.4833 7.19416 25.3221C8.78619 28.1391 10.3944 29.5478 12.0186 29.5478C12.5636 29.5478 13.2689 29.3628 14.1343 28.993C15 28.6344 15.7586 28.4547 16.4105 28.4547C17.1048 28.4547 17.9117 28.6287 18.8306 28.9766C19.8029 29.3243 20.5511 29.4984 21.0746 29.4984C22.4423 29.4984 23.8156 28.4324 25.1939 26.3007C26.0913 24.9412 26.7485 23.5817 27.1652 22.2221C26.2142 21.9282 25.3702 21.243 24.6329 20.1662Z" fill="#A8A8A8"/>
<path d="M19.1832 7.55576C19.8566 6.87056 20.3534 6.11999 20.6741 5.30439C20.9838 4.48868 21.1384 3.74896 21.1384 3.08542C21.1384 3.04205 21.1361 2.98759 21.1303 2.92228C21.1255 2.85702 21.1226 2.80279 21.1226 2.75925C21.1119 2.72656 21.0986 2.66673 21.0827 2.57982C21.0667 2.4929 21.0534 2.43308 21.0425 2.40039C19.1618 2.84656 17.8262 3.65136 17.0354 4.81519C16.2342 5.98988 15.8173 7.38736 15.7852 9.00793C16.5011 8.94262 17.0565 8.85033 17.4521 8.73062C18.0295 8.53479 18.6059 8.14308 19.1832 7.55576Z" fill="#A8A8A8"/>
</svg>
