<svg width="1440" height="1382" viewBox="0 0 1440 1382" fill="none" xmlns="http://www.w3.org/2000/svg">
<g opacity="0.082991">
<rect x="71.8555" width="1.44" height="864" fill="white"/>
<rect x="143.855" width="1.44" height="864" fill="white"/>
<rect x="215.855" width="1.44" height="864" fill="white"/>
<rect x="287.855" width="1.44" height="864" fill="white"/>
<rect x="359.713" width="1.44" height="864" fill="white"/>
<rect x="431.855" width="1.44" height="864" fill="white"/>
<rect x="503.855" width="1.44" height="864" fill="white"/>
<rect x="575.855" width="1.44" height="864" fill="white"/>
<rect x="647.855" width="1.44" height="864" fill="white"/>
<rect x="719.713" width="1.44" height="864" fill="white"/>
<rect x="791.855" width="1.44" height="864" fill="white"/>
<rect x="863.855" width="1.44" height="864" fill="white"/>
<rect x="935.855" width="1.44" height="864" fill="white"/>
<rect x="1007.86" width="1.44" height="864" fill="white"/>
<rect x="1079.71" width="1.44" height="864" fill="white"/>
<rect x="1151.86" width="1.44" height="864" fill="white"/>
<rect x="1223.86" width="1.44" height="864" fill="white"/>
<rect x="1295.86" width="1.44" height="864" fill="white"/>
<rect x="1367.86" width="1.44" height="864" fill="white"/>
<rect y="86.2561" width="1440" height="1.44" fill="white"/>
<rect y="172.512" width="1440" height="1.44" fill="white"/>
<rect y="259.056" width="1440" height="1.44" fill="white"/>
<rect y="345.312" width="1440" height="1.44" fill="white"/>
<rect y="431.856" width="1440" height="1.44" fill="white"/>
<rect y="518.112" width="1440" height="1.44" fill="white"/>
<rect y="604.656" width="1440" height="1.44" fill="white"/>
<rect y="690.912" width="1440" height="1.44" fill="white"/>
<rect y="777.456" width="1440" height="1.44" fill="white"/>
<rect x="71.8555" y="864" width="1.44" height="864" fill="white"/>
<rect x="143.855" y="864" width="1.44" height="864" fill="white"/>
<rect x="215.855" y="864" width="1.44" height="864" fill="white"/>
<rect x="287.855" y="864" width="1.44" height="864" fill="white"/>
<rect x="359.713" y="864" width="1.44" height="864" fill="white"/>
<rect x="431.855" y="864" width="1.44" height="864" fill="white"/>
<rect x="503.855" y="864" width="1.44" height="864" fill="white"/>
<rect x="575.855" y="864" width="1.44" height="864" fill="white"/>
<rect x="647.855" y="864" width="1.44" height="864" fill="white"/>
<rect x="719.713" y="864" width="1.44" height="864" fill="white"/>
<rect x="791.855" y="864" width="1.44" height="864" fill="white"/>
<rect x="863.855" y="864" width="1.44" height="864" fill="white"/>
<rect x="935.855" y="864" width="1.44" height="864" fill="white"/>
<rect x="1007.86" y="864" width="1.44" height="864" fill="white"/>
<rect x="1079.71" y="864" width="1.44" height="864" fill="white"/>
<rect x="1151.86" y="864" width="1.44" height="864" fill="white"/>
<rect x="1223.86" y="864" width="1.44" height="864" fill="white"/>
<rect x="1295.86" y="864" width="1.44" height="864" fill="white"/>
<rect x="1367.86" y="864" width="1.44" height="864" fill="white"/>
<rect y="863.256" width="1440" height="1.44" fill="white"/>
<rect y="949.512" width="1440" height="1.44" fill="white"/>
<rect y="1036.06" width="1440" height="1.44" fill="white"/>
<rect y="1122.31" width="1440" height="1.44" fill="white"/>
<rect y="1208.86" width="1440" height="1.44" fill="white"/>
<rect y="1295.11" width="1440" height="1.44" fill="white"/>
<rect y="1381.66" width="1440" height="1.44" fill="white"/>
</g>
</svg>
