<svg width="28" height="28" viewBox="0 0 28 28" fill="none" xmlns="http://www.w3.org/2000/svg">
<path d="M14.1094 24.3457C14.1094 25.5303 13.16 26.5 12 26.5C10.8296 26.4999 9.89164 25.5303 9.89164 24.3457H14.1094ZM12 5.5C12.8753 5.5 13.582 6.22146 13.5821 7.11523V7.84766C16.598 8.57998 18.3272 11.3482 18.3272 14.6543V20.0381L19.6875 21.4277C20.3518 22.1061 19.8883 23.2692 18.9395 23.2695H5.05082C4.11235 23.2695 3.64833 22.1062 4.31254 21.4277L5.67289 20.0381V14.6543C5.67289 11.3375 7.39174 8.5801 10.418 7.84766V7.11523C10.4181 6.22152 11.1249 5.5001 12 5.5ZM12 9.80762C9.37436 9.80772 7.78227 11.9836 7.78227 14.6543V21.1152H16.2188V14.6543C16.2188 11.9835 14.6258 9.80762 12 9.80762Z" fill="#C3C3C3"/>
<g clip-path="url(#clip0_619_236)">
<rect x="12" width="16" height="16" rx="4" fill="#F55710"/>
<path d="M14.9961 11.8281C15.1875 11.9531 15.3906 12.0488 15.6055 12.1152C15.8242 12.1777 16.0645 12.209 16.3262 12.209C16.6934 12.209 17.0215 12.1445 17.3105 12.0156C17.5996 11.8867 17.8457 11.6836 18.0488 11.4062C18.2559 11.1289 18.418 10.7754 18.5352 10.3457C18.6523 9.91211 18.7207 9.39062 18.7402 8.78125H18.7344C18.6172 8.96094 18.4785 9.12109 18.3184 9.26172C18.1621 9.40234 17.9883 9.52148 17.7969 9.61914C17.6094 9.71289 17.4102 9.78516 17.1992 9.83594C16.9883 9.88672 16.7715 9.91211 16.5488 9.91211C16.1426 9.91211 15.7676 9.84961 15.4238 9.72461C15.084 9.59961 14.791 9.42188 14.5449 9.19141C14.2988 8.95703 14.1055 8.67383 13.9648 8.3418C13.8281 8.00586 13.7598 7.62891 13.7598 7.21094C13.7598 6.78906 13.8379 6.39844 13.9941 6.03906C14.1543 5.67969 14.3691 5.36914 14.6387 5.10742C14.9082 4.8457 15.2188 4.64062 15.5703 4.49219C15.9258 4.34375 16.2969 4.26953 16.6836 4.26953C16.9258 4.26953 17.168 4.29492 17.4102 4.3457C17.6562 4.39648 17.8906 4.48438 18.1133 4.60938C18.3398 4.73047 18.5508 4.89258 18.7461 5.0957C18.9414 5.29492 19.1113 5.54492 19.2559 5.8457C19.4004 6.14258 19.5137 6.49609 19.5957 6.90625C19.6816 7.31641 19.7246 7.78906 19.7246 8.32422C19.7246 9.20312 19.6387 9.95117 19.4668 10.5684C19.2949 11.1816 19.0586 11.6797 18.7578 12.0625C18.4609 12.4453 18.1094 12.7246 17.7031 12.9004C17.2969 13.0723 16.8594 13.1582 16.3906 13.1582C15.9805 13.1582 15.6152 13.1074 15.2949 13.0059C14.9785 12.9082 14.7188 12.7891 14.5156 12.6484L14.9961 11.8281ZM18.4824 7.15234C18.4824 6.83203 18.4316 6.55273 18.3301 6.31445C18.2324 6.07617 18.0996 5.87891 17.9316 5.72266C17.7676 5.56641 17.5762 5.44922 17.3574 5.37109C17.1387 5.29297 16.9121 5.25391 16.6777 5.25391C16.4199 5.25391 16.1797 5.29492 15.957 5.37695C15.7344 5.45898 15.541 5.58203 15.377 5.74609C15.2129 5.91016 15.082 6.11523 14.9844 6.36133C14.8906 6.60352 14.8438 6.88477 14.8438 7.20508C14.8438 7.4668 14.8848 7.70898 14.9668 7.93164C15.0527 8.15039 15.1719 8.3418 15.3242 8.50586C15.4805 8.66602 15.668 8.79102 15.8867 8.88086C16.1055 8.9707 16.3496 9.01562 16.6191 9.01562C16.9043 9.01562 17.1621 8.9707 17.3926 8.88086C17.623 8.79102 17.8184 8.66602 17.9785 8.50586C18.1387 8.3418 18.2617 8.14648 18.3477 7.91992C18.4375 7.68945 18.4824 7.43359 18.4824 7.15234ZM23.2109 11.6113V9.25586H20.9668V8.27148H23.2109V5.93359H24.1719V8.27148H26.416V9.25586H24.1719V11.6113H23.2109Z" fill="white"/>
</g>
<defs>
<clipPath id="clip0_619_236">
<rect width="16" height="16" fill="white" transform="translate(12)"/>
</clipPath>
</defs>
</svg>
