<svg width="24" height="24" viewBox="0 0 24 24" fill="none" xmlns="http://www.w3.org/2000/svg">
<path d="M10.6855 2.83325C14.8372 2.83325 18.2156 6.21092 18.2158 10.3625C18.2158 12.1395 17.5904 13.8467 16.4492 15.2034L20.8877 19.8206C21.263 20.2111 21.2505 20.8338 20.8604 21.2092C20.6767 21.3858 20.4345 21.4827 20.1797 21.4827C19.9105 21.4826 19.6595 21.3757 19.4727 21.1819L15 16.5305C13.7301 17.4229 12.2442 17.8928 10.6855 17.8928C6.53391 17.8926 3.15625 14.5142 3.15625 10.3625C3.1565 6.21107 6.53407 2.8335 10.6855 2.83325ZM10.6855 4.79712C7.61705 4.79737 5.12037 7.29405 5.12012 10.3625C5.12012 13.4313 7.61689 15.9287 10.6855 15.929C13.7544 15.929 16.252 13.4314 16.252 10.3625C16.2517 7.29389 13.7543 4.79712 10.6855 4.79712Z" fill="#C3C3C3"/>
</svg>
